<?xml version="1.0" encoding="utf-8"?>
<!-- Generator: Adobe Illustrator 17.0.2, SVG Export Plug-In . SVG Version: 6.00 Build 0)  -->
<!DOCTYPE svg PUBLIC "-//W3C//DTD SVG 1.1//EN" "http://www.w3.org/Graphics/SVG/1.1/DTD/svg11.dtd">
<svg version="1.1" id="Layer_1" xmlns="http://www.w3.org/2000/svg" xmlns:xlink="http://www.w3.org/1999/xlink" x="0px" y="0px"
	 width="59.241px" height="51.234px" viewBox="0 0 59.241 51.234" enable-background="new 0 0 59.241 51.234" xml:space="preserve">
<g id="XMLID_1_">
	<g>
		<path fill="#66A6ED" d="M20.031,8.399c0.37-0.16,11.06-4.85,9.59,3v0.01c-15.48,10.13-14.95,42.37,21.98,38.4
			c-63.13,8.34-59.73-42.24-32.82-48.64C25.981,0.609,20.351,7.979,20.031,8.399z"/>
		<path fill="#D6E6F2" d="M48.281,10.179c-7.38-2.96-13.8-1.96-18.66,1.22c1.47-7.85-9.22-3.16-9.59-3
			c0.32-0.42,5.95-7.79-1.25-7.23C26.881-0.771,37.101,1.299,48.281,10.179z"/>
	</g>
	<g>
		<path fill="none" stroke="#2D5AAA" stroke-linecap="round" stroke-miterlimit="10" d="M29.621,11.409
			c-15.48,10.13-14.95,42.37,21.98,38.4c2.24-0.24,4.62-0.62,7.14-1.14"/>
		<path fill="none" stroke="#2D5AAA" stroke-linecap="round" stroke-miterlimit="10" d="M48.281,10.179
			c-7.38-2.96-13.8-1.96-18.66,1.22"/>
		<path fill="none" stroke="#2D5AAA" stroke-linecap="round" stroke-miterlimit="10" d="M48.281,10.179
			c-11.18-8.88-21.4-10.95-29.5-9.01c-26.91,6.4-30.31,56.98,32.82,48.64c2.29-0.3,4.67-0.68,7.14-1.14"/>
		<path fill="none" stroke="#2D5AAA" stroke-linecap="round" stroke-linejoin="round" stroke-miterlimit="10" d="M20.021,8.409
			c0,0,0-0.01,0.01-0.01c0.32-0.42,5.95-7.79-1.25-7.23c-0.01,0-0.02,0-0.03,0"/>
		<path fill="none" stroke="#2D5AAA" stroke-linecap="round" stroke-linejoin="round" stroke-miterlimit="10" d="M29.621,11.409
			v-0.01c1.47-7.85-9.22-3.16-9.59-3"/>
	</g>
</g>
</svg>
