<?xml version="1.0" encoding="utf-8"?>
<!-- Generator: Adobe Illustrator 18.1.1, SVG Export Plug-In . SVG Version: 6.00 Build 0)  -->
<svg version="1.1" id="Layer_1" xmlns="http://www.w3.org/2000/svg" xmlns:xlink="http://www.w3.org/1999/xlink" x="0px" y="0px"
	 viewBox="0 0 100 100" enable-background="new 0 0 100 100" xml:space="preserve">
<g>
	<path fill="none" stroke="#183151" stroke-width="6" stroke-linecap="round" stroke-linejoin="round" stroke-miterlimit="10" d="
		M7.3,57.2c0,0,6.1,4.9,14.6,4.9s14.6-4.9,14.6-4.9"/>
	<path fill="none" stroke="#183151" stroke-width="6" stroke-linecap="round" stroke-linejoin="round" stroke-miterlimit="10" d="
		M36.6,57.2c0,0,6.1,4.9,14.6,4.9s14.6-4.9,14.6-4.9"/>
	<path fill="none" stroke="#183151" stroke-width="6" stroke-linecap="round" stroke-linejoin="round" stroke-miterlimit="10" d="
		M65.9,57.2c0,0,6.1,4.9,14.6,4.9s14.6-4.9,14.6-4.9"/>
</g>
<g>
	<path fill="none" stroke="#183151" stroke-width="6" stroke-linecap="round" stroke-linejoin="round" stroke-miterlimit="10" d="
		M3.7,46c0,0,6.1,4.9,14.6,4.9S33,46,33,46"/>
	<path fill="none" stroke="#183151" stroke-width="6" stroke-linecap="round" stroke-linejoin="round" stroke-miterlimit="10" d="
		M33,46c0,0,6.1,4.9,14.6,4.9S62.3,46,62.3,46"/>
	<path fill="none" stroke="#183151" stroke-width="6" stroke-linecap="round" stroke-linejoin="round" stroke-miterlimit="10" d="
		M62.3,46c0,0,6.1,4.9,14.6,4.9S91.6,46,91.6,46"/>
</g>
<g>
	<path fill="none" stroke="#183151" stroke-width="6" stroke-linecap="round" stroke-linejoin="round" stroke-miterlimit="10" d="
		M8.2,35.3c0,0,6.1,4.9,14.6,4.9s14.6-4.9,14.6-4.9"/>
	<path fill="none" stroke="#183151" stroke-width="6" stroke-linecap="round" stroke-linejoin="round" stroke-miterlimit="10" d="
		M37.5,35.3c0,0,6.1,4.9,14.6,4.9s14.6-4.9,14.6-4.9"/>
	<path fill="none" stroke="#183151" stroke-width="6" stroke-linecap="round" stroke-linejoin="round" stroke-miterlimit="10" d="
		M66.8,35.3c0,0,6.1,4.9,14.6,4.9S96,35.3,96,35.3"/>
</g>
</svg>
