<?xml version="1.0" encoding="utf-8"?>
<!-- Generator: Adobe Illustrator 18.1.1, SVG Export Plug-In . SVG Version: 6.00 Build 0)  -->
<svg version="1.1" id="Layer_1" xmlns="http://www.w3.org/2000/svg" xmlns:xlink="http://www.w3.org/1999/xlink" x="0px" y="0px"
	 viewBox="0 0 100 100" enable-background="new 0 0 100 100" xml:space="preserve">
<g>
	<path fill="none" stroke="#555555" stroke-width="6" stroke-linecap="round" stroke-linejoin="round" stroke-miterlimit="10" d="
		M4.2,53.3c0,0,5.9,4.7,14.1,4.7s14.1-4.7,14.1-4.7"/>
	<path fill="none" stroke="#555555" stroke-width="6" stroke-linecap="round" stroke-linejoin="round" stroke-miterlimit="10" d="
		M32.3,53.3c0,0,5.9,4.7,14.1,4.7s14.1-4.7,14.1-4.7"/>
	<path fill="none" stroke="#555555" stroke-width="6" stroke-linecap="round" stroke-linejoin="round" stroke-miterlimit="10" d="
		M60.4,53.3c0,0,5.9,4.7,14.1,4.7s14.1-4.7,14.1-4.7"/>
</g>
<g>
	<path fill="none" stroke="#555555" stroke-width="6" stroke-linecap="round" stroke-linejoin="round" stroke-miterlimit="10" d="
		M7.7,43.6c0,0,5.9,4.7,14.1,4.7s14.1-4.7,14.1-4.7"/>
	<path fill="none" stroke="#555555" stroke-width="6" stroke-linecap="round" stroke-linejoin="round" stroke-miterlimit="10" d="
		M35.8,43.6c0,0,5.9,4.7,14.1,4.7s14.1-4.7,14.1-4.7"/>
	<path fill="none" stroke="#555555" stroke-width="6" stroke-linecap="round" stroke-linejoin="round" stroke-miterlimit="10" d="
		M63.9,43.6c0,0,5.9,4.7,14.1,4.7S92,43.6,92,43.6"/>
</g>
<g>
	<path fill="none" stroke="#555555" stroke-width="6" stroke-linecap="round" stroke-linejoin="round" stroke-miterlimit="10" d="
		M12,33.3c0,0,5.9,4.7,14.1,4.7s14.1-4.7,14.1-4.7"/>
	<path fill="none" stroke="#555555" stroke-width="6" stroke-linecap="round" stroke-linejoin="round" stroke-miterlimit="10" d="
		M40.1,33.3c0,0,5.9,4.7,14.1,4.7s14.1-4.7,14.1-4.7"/>
	<path fill="none" stroke="#555555" stroke-width="6" stroke-linecap="round" stroke-linejoin="round" stroke-miterlimit="10" d="
		M68.2,33.3c0,0,5.9,4.7,14.1,4.7s14.1-4.7,14.1-4.7"/>
</g>
</svg>
