<?xml version="1.0" encoding="utf-8"?>
<!-- Generator: Adobe Illustrator 18.1.1, SVG Export Plug-In . SVG Version: 6.00 Build 0)  -->
<svg version="1.1" id="Layer_1" xmlns="http://www.w3.org/2000/svg" xmlns:xlink="http://www.w3.org/1999/xlink" x="0px" y="0px"
	 viewBox="0 0 100 100" enable-background="new 0 0 100 100" xml:space="preserve">
<g>
	
		<line fill="#FFFFFF" stroke="#555555" stroke-width="6" stroke-linecap="round" stroke-miterlimit="10" x1="4.3" y1="41.1" x2="55.5" y2="41.1"/>
	<path fill="none" stroke="#555555" stroke-width="6" stroke-linecap="round" stroke-miterlimit="10" d="M47.6,33.2
		c0-4.4,3.5-7.9,7.9-7.9s7.9,3.5,7.9,7.9s-3.5,7.9-7.9,7.9"/>
</g>
<g>
	
		<line fill="#FFFFFF" stroke="#555555" stroke-width="6" stroke-linecap="round" stroke-miterlimit="10" x1="4.3" y1="55.2" x2="67.5" y2="55.2"/>
	<path fill="none" stroke="#555555" stroke-width="6" stroke-linecap="round" stroke-miterlimit="10" d="M67.5,55.2
		c5.9,0,10.7,4.8,10.7,10.7s-4.8,10.7-10.7,10.7s-10.7-4.8-10.7-10.7"/>
</g>
<g>
	
		<line fill="#FFFFFF" stroke="#555555" stroke-width="6" stroke-linecap="round" stroke-miterlimit="10" x1="4.3" y1="48.4" x2="86.3" y2="48.4"/>
	<path fill="none" stroke="#555555" stroke-width="6" stroke-linecap="round" stroke-miterlimit="10" d="M76.4,38.5
		c0-5.5,4.4-9.9,9.9-9.9s9.9,4.4,9.9,9.9s-4.4,9.9-9.9,9.9"/>
</g>
</svg>
